# xmcd
#
# Track frame offsets:
# 150
# 17100
# 41518
# 58085
# 68283
# 81313
# 93353
# 102333
# 113033
# 124363
# 137333
# 149443
# 162638
# 170350
# 180153
# 193433
# 204488
# 215548
# 225610
# 238340
# 249333
#
# Disc length: 3506 seconds
#
#
# Revision: 0
# Processed by: cddbd v1.5.2PL0 Copyright (c) Steve Scherf et al.
# Submitted via: FreeRIP 2.30 
#
DISCID=2b0db015
DTITLE=Preachin' The Blues - The R'N'B Era Volume Two
DYEAR=1992
DGENRE=R&B
TTITLE0=The Kinks - Got Love If You Want It
TTITLE1=Shakey Vick - Movin' To Chicago
TTITLE2=The Primitives - Help Me
TTITLE3=The Alan Bown Set - Baby Don't Push Me
TTITLE4=The Soul Agents - Don't Break It Up
TTITLE5=The Soul Agents - The Seventh Son
TTITLE6=The Riot Squad - Gonna Make You Mine
TTITLE7=The First Gear - A Certain Girl
TTITLE8=The Monotones - Something's Hutin' Me
TTITLE9=Don Craine's New Downliners Sect - I Can't Get Away From You
TTITLE10=The Dedicated Mens Jug Band - Boodle-Am-Shake
TTITLE11=Tony Colton - You're Wrong There Baby
TTITLE12=Peter's Faces - Susie Q
TTITLE13=Cyril Davis and His Rhythm And Blues All Stars - Preachin' The Blues
TTITLE14=Cyril Davis and His Rhythm And Blues All Stars - Sweet Mary
TTITLE15=Cyril Davis and His Rhythm And Blues All Stars - Chicago Calling
TTITLE16=The Soul Agents - I Just Want To Make Love To You
TTITLE17=Jimmy Powell And The 5th Dimensions - That's Alright
TTITLE18=Jimmy Powell And The 5th Dimensions - Sugar Babe
TTITLE19=The Sheffields - Bags Groove (Scat Walking)
TTITLE20=The Uglys - Ugly Blues
EXTD=
EXTT0=
EXTT1=
EXTT2=
EXTT3=
EXTT4=
EXTT5=
EXTT6=
EXTT7=
EXTT8=
EXTT9=
EXTT10=
EXTT11=
EXTT12=
EXTT13=
EXTT14=
EXTT15=
EXTT16=
EXTT17=
EXTT18=
EXTT19=
EXTT20=
PLAYORDER=
